<svg width="71" height="13" viewBox="0 0 71 13" fill="none" xmlns="http://www.w3.org/2000/svg">
<path d="M0.416376 12V0.719999H5.34438C6.52838 0.719999 7.44571 0.981333 8.09638 1.504C8.74704 2.016 9.07238 2.73067 9.07238 3.648C9.07238 4.256 8.91771 4.77867 8.60838 5.216C8.29904 5.65333 7.87238 5.97333 7.32838 6.176C7.96838 6.35733 8.46438 6.67733 8.81638 7.136C9.17904 7.584 9.36038 8.15467 9.36038 8.848C9.36038 9.85067 9.01904 10.6293 8.33638 11.184C7.66438 11.728 6.72571 12 5.52038 12H0.416376ZM2.38438 5.504H4.99238C6.38971 5.504 7.08838 4.96533 7.08838 3.888C7.08838 2.81067 6.38971 2.272 4.99238 2.272H2.38438V5.504ZM2.38438 10.448H5.26438C6.67238 10.448 7.37638 9.88267 7.37638 8.752C7.37638 7.62133 6.67238 7.056 5.26438 7.056H2.38438V10.448ZM12.8579 12L17.9619 0.719999H19.6419L24.7459 12H22.6659L21.5459 9.392H16.0419L14.9379 12H12.8579ZM18.7779 2.944L16.7459 7.76H20.8419L18.8099 2.944H18.7779ZM32.4631 12.16C31.5778 12.16 30.7565 12.048 29.9991 11.824C29.2418 11.5893 28.6018 11.2747 28.0791 10.88L28.7031 9.264C29.2258 9.63733 29.7965 9.92533 30.4151 10.128C31.0445 10.3307 31.7271 10.432 32.4631 10.432C33.3058 10.432 33.9191 10.2933 34.3031 10.016C34.6871 9.728 34.8791 9.36 34.8791 8.912C34.8791 8.53867 34.7405 8.24533 34.4631 8.032C34.1965 7.81867 33.7325 7.64267 33.0711 7.504L31.3111 7.136C29.3058 6.70933 28.3031 5.68 28.3031 4.048C28.3031 3.344 28.4898 2.73067 28.8631 2.208C29.2365 1.68533 29.7538 1.28 30.4151 0.992C31.0765 0.704 31.8391 0.559999 32.7031 0.559999C33.4711 0.559999 34.1911 0.677333 34.8631 0.912C35.5351 1.136 36.0951 1.456 36.5431 1.872L35.9191 3.408C35.0338 2.66133 33.9565 2.288 32.6871 2.288C31.9511 2.288 31.3751 2.44267 30.9591 2.752C30.5431 3.06133 30.3351 3.46667 30.3351 3.968C30.3351 4.352 30.4631 4.66133 30.7191 4.896C30.9751 5.12 31.4125 5.296 32.0311 5.424L33.7751 5.792C34.8311 6.016 35.6151 6.368 36.1271 6.848C36.6498 7.328 36.9111 7.968 36.9111 8.768C36.9111 9.44 36.7298 10.032 36.3671 10.544C36.0045 11.056 35.4871 11.456 34.8151 11.744C34.1538 12.0213 33.3698 12.16 32.4631 12.16ZM41.3889 12V0.719999H43.4369V12H41.3889ZM53.8569 12.16C52.6835 12.16 51.6755 11.9253 50.8329 11.456C50.0009 10.976 49.3609 10.304 48.9129 9.44C48.4649 8.56533 48.2409 7.536 48.2409 6.352C48.2409 5.168 48.4649 4.144 48.9129 3.28C49.3609 2.416 50.0009 1.74933 50.8329 1.28C51.6755 0.8 52.6835 0.559999 53.8569 0.559999C54.6142 0.559999 55.3289 0.677333 56.0009 0.912C56.6835 1.14667 57.2435 1.48267 57.6809 1.92L57.0089 3.552C56.5289 3.14667 56.0382 2.85333 55.5369 2.672C55.0355 2.48 54.4969 2.384 53.9209 2.384C52.7795 2.384 51.9102 2.73067 51.3129 3.424C50.7155 4.10667 50.4169 5.08267 50.4169 6.352C50.4169 7.62133 50.7155 8.60267 51.3129 9.296C51.9102 9.98933 52.7795 10.336 53.9209 10.336C54.4969 10.336 55.0355 10.2453 55.5369 10.064C56.0382 9.872 56.5289 9.57333 57.0089 9.168L57.6809 10.8C57.2435 11.2267 56.6835 11.5627 56.0009 11.808C55.3289 12.0427 54.6142 12.16 53.8569 12.16ZM65.8419 12.16C64.9565 12.16 64.1352 12.048 63.3779 11.824C62.6205 11.5893 61.9805 11.2747 61.4579 10.88L62.0819 9.264C62.6045 9.63733 63.1752 9.92533 63.7939 10.128C64.4232 10.3307 65.1059 10.432 65.8419 10.432C66.6845 10.432 67.2979 10.2933 67.6819 10.016C68.0659 9.728 68.2579 9.36 68.2579 8.912C68.2579 8.53867 68.1192 8.24533 67.8419 8.032C67.5752 7.81867 67.1112 7.64267 66.4499 7.504L64.6899 7.136C62.6845 6.70933 61.6819 5.68 61.6819 4.048C61.6819 3.344 61.8685 2.73067 62.2419 2.208C62.6152 1.68533 63.1325 1.28 63.7939 0.992C64.4552 0.704 65.2179 0.559999 66.0819 0.559999C66.8499 0.559999 67.5699 0.677333 68.2419 0.912C68.9139 1.136 69.4739 1.456 69.9219 1.872L69.2979 3.408C68.4125 2.66133 67.3352 2.288 66.0659 2.288C65.3299 2.288 64.7539 2.44267 64.3379 2.752C63.9219 3.06133 63.7139 3.46667 63.7139 3.968C63.7139 4.352 63.8419 4.66133 64.0979 4.896C64.3539 5.12 64.7912 5.296 65.4099 5.424L67.1539 5.792C68.2099 6.016 68.9939 6.368 69.5059 6.848C70.0285 7.328 70.2899 7.968 70.2899 8.768C70.2899 9.44 70.1085 10.032 69.7459 10.544C69.3832 11.056 68.8659 11.456 68.1939 11.744C67.5325 12.0213 66.7485 12.16 65.8419 12.16Z" fill="#161616"/>
</svg>
